<svg width="200" height="40" viewBox="0 0 200 40" fill="none" xmlns="http://www.w3.org/2000/svg">
<path d="M66.7777 15.5515C63.7487 14.7438 62.8464 14.4854 62.8464 13.3869C62.8464 12.2562 63.9098 11.5777 65.6821 11.5777C67.4544 11.5777 68.7755 12.0946 69.8067 13.1285L69.9034 13.2254L72.3523 10.2854L72.2879 10.2208C70.6767 8.60545 68.5822 7.83008 65.7143 7.83008C62.3308 7.83008 58.7863 9.99467 58.7863 13.5808C58.7863 16.9407 61.7508 18.0715 65.0698 19.0084C68.0666 19.8484 68.7755 20.2038 68.7755 21.4638C68.7755 22.853 67.7444 23.5314 65.4887 23.5314C63.3298 23.5314 61.2997 22.3038 60.3008 21.1407L60.2041 21.0438L57.6907 23.9191L57.7551 23.9837C58.9474 25.5991 62.3308 27.3114 65.7788 27.3114C70 27.3114 72.739 24.9853 72.739 21.3345C72.7068 17.7807 70.5478 16.5207 66.7777 15.5515Z" fill="#002341"/>
<path d="M84.6295 20.4623C84.6295 22.6269 83.695 23.6931 81.7938 23.6931C80.1182 23.6931 79.506 22.95 79.506 20.9793V12.8701H75.6714V21.7869C75.6714 25.2115 77.6692 27.2469 80.9883 27.2469C82.6316 27.2469 83.8239 26.73 84.6295 25.6961V26.9884H88.4641V12.8701H84.6295V20.4623Z" fill="#002341"/>
<path d="M100.483 12.5793C98.421 12.5793 96.971 13.2578 96.0687 14.6793V12.8701H92.2341V32.6099H96.0687V25.1792C96.971 26.6007 98.421 27.2792 100.483 27.2792C104.382 27.2792 106.992 24.3392 106.992 19.9454C106.992 15.5516 104.382 12.5793 100.483 12.5793ZM103.19 19.9131C103.19 22.2069 101.804 23.6931 99.6777 23.6931C97.5188 23.6931 96.0687 22.1746 96.0687 19.9131C96.0687 17.6516 97.5188 16.1332 99.6777 16.1332C101.804 16.1655 103.19 17.6516 103.19 19.9131Z" fill="#002341"/>
<path d="M116.627 12.5793C112.31 12.5793 109.184 15.6485 109.184 19.9131C109.184 24.3069 112.181 27.2469 116.627 27.2469C119.302 27.2469 121.783 26.1807 123.072 24.4684L123.137 24.4038L120.623 22.11L120.559 22.1746C119.366 23.4346 118.464 23.79 116.724 23.79C114.758 23.79 113.502 22.8531 113.147 21.0762H123.523V19.8808C123.523 15.6162 120.688 12.5793 116.627 12.5793ZM113.212 18.2977C113.663 16.8116 114.855 16.0362 116.627 16.0362C118.303 16.0362 119.205 16.747 119.56 18.2977H113.212Z" fill="#002341"/>
<path d="M129.936 14.8409V12.8701H126.101V26.9884H129.936V19.9131C129.936 17.5224 131.096 16.6824 134.35 16.6824H134.995V12.8701H134.898C132.514 12.8701 130.902 13.5163 129.936 14.8409Z" fill="#002341"/>
<path d="M153.298 12.5793C151.203 12.5793 149.721 13.3547 148.915 14.8732C148.206 13.2901 146.756 12.5793 144.372 12.5793C142.696 12.5793 141.439 13.1609 140.602 14.3239V12.8378H136.767V26.9561H140.602V19.3962C140.602 17.1993 141.536 16.0362 143.308 16.0362C145.274 16.0362 145.693 17.1347 145.693 18.8793V27.0207H149.495V19.3962C149.495 17.1024 150.365 16.0362 152.266 16.0362C154.2 16.0362 154.554 17.0378 154.554 18.8793V27.0207H158.389V18.3301C158.357 14.3562 156.778 12.5793 153.298 12.5793Z" fill="#002341"/>
<path d="M168.088 12.5793C163.835 12.5793 160.516 15.8101 160.516 19.9131C160.516 24.0161 163.835 27.2469 168.088 27.2469C172.342 27.2469 175.661 24.0161 175.661 19.9131C175.661 15.8101 172.342 12.5793 168.088 12.5793ZM171.858 19.9131C171.858 22.2069 170.376 23.6931 168.088 23.6931C165.8 23.6931 164.318 22.2069 164.318 19.9131C164.318 17.6193 165.8 16.1332 168.088 16.1332C170.376 16.1655 171.858 17.6516 171.858 19.9131Z" fill="#002341"/>
<path d="M178.271 27.9576C178.271 28.8622 177.852 29.0561 177.111 29.0561C176.305 29.0561 175.854 28.8622 175.371 28.3453L175.274 28.2484L173.566 31.1561L173.598 31.2207C174.307 32.1253 175.661 32.6422 177.272 32.6422C179.463 32.6422 182.105 31.9314 182.105 28.5069V12.8701H178.271V27.9576Z" fill="#002341"/>
<path d="M180.172 6.44092C178.883 6.44092 177.852 7.47475 177.852 8.76704C177.852 10.0593 178.883 11.0932 180.172 11.0932C181.461 11.0932 182.492 10.0593 182.492 8.76704C182.492 7.47475 181.429 6.44092 180.172 6.44092Z" fill="#002341"/>
<path d="M192.256 12.5793C188.002 12.5793 184.683 15.8101 184.683 19.9131C184.683 24.0161 188.002 27.2469 192.256 27.2469C196.509 27.2469 199.828 24.0161 199.828 19.9131C199.828 15.8101 196.509 12.5793 192.256 12.5793ZM195.994 19.9131C195.994 22.2069 194.511 23.6931 192.224 23.6931C189.936 23.6931 188.453 22.2069 188.453 19.9131C188.453 17.6193 189.936 16.1332 192.224 16.1332C194.511 16.1332 195.994 17.6516 195.994 19.9131Z" fill="#002341"/>
<path d="M44.608 20.0747L49.9249 0.270264H26.9496C18.0882 0.270264 10.8701 7.4748 10.8701 16.3916L19.0226 16.1655C20.2149 16.1332 21.2461 15.4224 21.7294 14.324L24.9195 6.73173L27.8519 13.7101C28.4963 15.2286 29.8175 16.3916 31.3964 16.8116L44.608 20.0747Z" fill="#FF7D14"/>
<path d="M5.48874 18.9762L0.171875 38.7806H23.1472C32.0086 38.7806 39.2267 31.5761 39.2267 22.6592L31.0741 22.8854C29.8819 22.9177 28.8507 23.6284 28.3674 24.7269L25.1772 32.3191L22.2449 25.3407C21.6004 23.8223 20.2793 22.6592 18.7003 22.2392L5.48874 18.9762Z" fill="#FF7D14"/>
</svg>
